<svg width="108" height="18" viewBox="0 0 108 18" fill="none" xmlns="http://www.w3.org/2000/svg">
<path fill-rule="evenodd" clip-rule="evenodd" d="M103.848 2.65852V17.4498H101.735V2.65852H97.978V1.01504H107.604V2.65852H103.848ZM95.7124 11.3572C95.3446 11.819 94.8828 12.1477 94.3272 12.3433C93.7715 12.539 93.1102 12.6368 92.3432 12.6368C91.9832 12.6368 91.5763 12.6133 91.1224 12.5663C90.6685 12.5194 90.2928 12.4646 89.9954 12.402V17.4498H87.8824V1.24983C88.4772 1.07765 89.0759 0.956348 89.6785 0.885913C90.2811 0.815478 90.9346 0.780261 91.6389 0.780261C92.578 0.780261 93.3763 0.878087 94.0337 1.07374C94.6911 1.26939 95.2232 1.59417 95.6302 2.04809C96.0372 2.502 96.3345 3.10461 96.5224 3.85591C96.7102 4.60722 96.8041 5.53852 96.8041 6.64983C96.8041 7.79243 96.7141 8.74722 96.5341 9.51417C96.3541 10.2811 96.0802 10.8955 95.7124 11.3572ZM94.515 4.53678C94.3976 3.9733 94.2137 3.52722 93.9632 3.19852C93.7128 2.86983 93.3959 2.63896 93.0124 2.50591C92.6289 2.37287 92.1711 2.30635 91.6389 2.30635H89.9954V10.9933H91.6389C92.1711 10.9933 92.6289 10.9268 93.0124 10.7937C93.3959 10.6607 93.7128 10.4298 93.9632 10.1011C94.2137 9.77244 94.3976 9.32635 94.515 8.76287C94.6324 8.19939 94.6911 7.49504 94.6911 6.64983C94.6911 5.80461 94.6324 5.10026 94.515 4.53678ZM82.5998 13.2237H77.9041L76.8476 17.4498H74.7346L78.7259 1.01504H81.778L85.7693 17.4498H83.6563L82.5998 13.2237ZM80.2989 3.36287H80.205L78.2563 11.5803H82.2476L80.2989 3.36287ZM70.1563 5.24113H70.0389L66.6345 15.3368H64.5215L61.1172 5.24113H60.9998L60.2954 17.4498H58.1824L59.1215 1.01504H61.7041L65.5311 12.2846H65.625L69.4519 1.01504H72.0345L72.9737 17.4498H70.8606L70.1563 5.24113ZM54.3789 15.9237C53.9406 16.5655 53.4124 17.0194 52.7941 17.2855C52.1759 17.5516 51.4676 17.6846 50.6693 17.6846C49.8711 17.6846 49.1628 17.5516 48.5445 17.2855C47.9263 17.0194 47.398 16.5655 46.9598 15.9237C46.5215 15.282 46.1889 14.4172 45.9619 13.3294C45.735 12.2416 45.6215 10.8759 45.6215 9.23244C45.6215 7.58896 45.735 6.2233 45.9619 5.13548C46.1889 4.04765 46.5215 3.18287 46.9598 2.54113C47.398 1.89939 47.9263 1.44548 48.5445 1.17939C49.1628 0.913305 49.8711 0.780261 50.6693 0.780261C51.4676 0.780261 52.1759 0.913305 52.7941 1.17939C53.4124 1.44548 53.9406 1.89939 54.3789 2.54113C54.8172 3.18287 55.1498 4.04765 55.3767 5.13548C55.6037 6.2233 55.7172 7.58896 55.7172 9.23244C55.7172 10.8759 55.6037 12.2416 55.3767 13.3294C55.1498 14.4172 54.8172 15.282 54.3789 15.9237ZM53.3576 5.75765C53.1932 4.84983 52.978 4.12983 52.7119 3.59765C52.4459 3.06548 52.1328 2.69765 51.7728 2.49417C51.4128 2.2907 51.045 2.18896 50.6693 2.18896C50.2937 2.18896 49.9258 2.2907 49.5658 2.49417C49.2059 2.69765 48.8928 3.06548 48.6267 3.59765C48.3606 4.12983 48.1454 4.84983 47.9811 5.75765C47.8167 6.66548 47.7345 7.82374 47.7345 9.23244C47.7345 10.6411 47.8167 11.7994 47.9811 12.7072C48.1454 13.615 48.3606 14.335 48.6267 14.8672C48.8928 15.3994 49.2059 15.7672 49.5658 15.9707C49.9258 16.1742 50.2937 16.2759 50.6693 16.2759C51.045 16.2759 51.4128 16.1742 51.7728 15.9707C52.1328 15.7672 52.4459 15.3994 52.7119 14.8672C52.978 14.335 53.1932 13.615 53.3576 12.7072C53.5219 11.7994 53.6041 10.6411 53.6041 9.23244C53.6041 7.82374 53.5219 6.66548 53.3576 5.75765ZM40.6911 9.93678H35.7606V17.4498H33.6476V1.01504H35.7606V8.2933H40.6911V1.01504H42.8041V17.4498H40.6911V9.93678ZM29.5397 17.4498L26.6049 10.4063L23.6701 17.4498H21.5571L25.0788 8.99765L21.9092 1.01504H24.0223L26.6049 7.58896L29.1875 1.01504H31.3005L28.131 8.99765L31.6527 17.4498H29.5397ZM12.2832 1.01504H20.2658V2.65852H14.3962V8.05852H19.5614V9.702H14.3962V15.8063H20.2658V17.4498H12.2832V1.01504ZM6.64837 17.4498H4.53533V2.65852H0.778809V1.01504H10.4049V2.65852H6.64837V17.4498Z" fill="white"/>
</svg>
